<?xml version="1.0" encoding="UTF-8"?><svg id="Layer_2" xmlns="http://www.w3.org/2000/svg" viewBox="0 0 1101.5944 247.8538"><g id="Components"><g id="_9ddd4218-5105-455d-9b4d-1218c3579575_1"><path d="M241.7921,186.0894l-42.0718-18.2948-12.5384,5.4523,41.552,18.0687-106.1288,46.1497-106.1288-46.1497,41.5519-18.0687-12.5384-5.4523L3.418,186.0894c-1.3134.5753-2.3621,1.6239-2.9373,2.9373-1.2642,2.8864.051,6.251,2.9373,7.5151l116.9049,50.8356c.7276.3176,1.5049.4764,2.2822.4764s1.5546-.1588,2.2822-.4764l116.9048-50.8356c1.3134-.5753,2.3621-1.6239,2.9373-2.9373,1.2642-2.8864-.0509-6.251-2.9373-7.5151Z" style="fill:#5b9bff; strokeWidth:0px;"/><path d="M241.7921,120.9859l-43.2217-18.7948-18.8076,8.1784,36.4326,15.8425-93.5903,40.6974L29.0146,126.2121l36.4326-15.8426-18.8076-8.1784L3.418,120.9859c-1.3134.5752-2.3621,1.6238-2.9373,2.9373-1.2642,2.8864.051,6.251,2.9373,7.5151l116.9049,50.8357c.7276.3176,1.5049.4763,2.2822.4763s1.5546-.1588,2.2822-.4763l116.9048-50.8357c1.3134-.5752,2.3621-1.6238,2.9373-2.9373,1.2642-2.8864-.051-6.251-2.9373-7.5151Z" style="fill:#438dff; strokeWidth:0px;"/><path d="M122.6051,21.293l81.052,35.2452-81.0521,35.2452L41.553,56.5382,122.6051,21.293M122.6051,0c-.7773,0-1.5546.1588-2.2822.4763L3.418,51.312c-1.3134.5752-2.3621,1.6239-2.9373,2.9373-1.2642,2.8863.0509,6.2509,2.9373,7.5151l116.9049,50.8356c.7276.3176,1.5049.4763,2.2822.4763s1.5546-.1588,2.2822-.4763l116.9049-50.8356c1.3134-.5752,2.3621-1.6239,2.9373-2.9373,1.2641-2.8863-.0509-6.2509-2.9373-7.5151L124.8872.4763c-.7276-.3176-1.5049-.4763-2.2822-.4763h0Z" style="fill:#1470ff; strokeWidth:0px;"/><path d="M595.9445,168.9624h-.7231l-19.5244-54.7772h-30.1909l31.1521,75.311,10.1707-3.7025-7.2974,15.6521-16.3087,38.5637h30.1903l52.0652-125.8243h-30.1903l-19.3434,54.7772ZM734.859,74.4131h-100.3338v27.1173h26.601l8.7545-8.7545v8.7545h.0779v99.4302h29.4672v-99.4302h35.4333v-27.1173ZM402.0449,126.6589l-17.8977-2.8926c-14.8236-2.3499-19.1624-6.146-19.1624-12.8352,0-8.316,5.9655-13.1975,19.705-13.1975s20.2476,4.8815,20.7902,15.7284h29.1057c-1.0847-26.3942-18.0782-41.3988-50.0764-41.3988s-48.9922,15.1857-48.9922,38.6868c0,20.0671,11.5701,32.5408,36.3369,36.5186l17.8977,2.8926c11.9316,1.9883,16.8125,7.0502,16.8125,13.9199,0,8.3159-6.5082,13.5588-20.4281,13.5588-13.7394,0-20.7902-4.8813-22.0554-15.9087h-29.1062c1.4462,26.3936,19.1635,41.5793,51.3421,41.5793,31.2756,0,49.7153-14.1006,49.7153-40.3142,0-20.0665-10.6664-32.5408-33.987-36.3374ZM506.523,114.1852l-31.4556,30.7329v-70.505h-27.4789v126.5475h27.4789v-24.0438l.0278-.0266v-19.8022l16.9489,22.5167,16.1061,21.356h31.9987l-38.3257-49.7153,38.3257-37.0601h-33.626ZM1101.5944,157.5729c0-27.1173-19.1629-45.7377-46.0997-45.7377-27.4789,0-46.8223,19.7051-46.8223,46.0992,0,26.2136,18.9824,45.3761,47.5454,45.3761,24.0443,0,39.7721-13.3774,43.7498-30.7324h-26.0326c-1.9889,5.7849-7.7739,9.4006-17.3551,9.4006-11.5701,0-18.4403-5.2429-20.4286-16.813h64.72c.5427-2.531.7231-5.062.7231-7.5929ZM1036.6934,148.1721c2.3504-10.3042,9.2202-15.0051,19.3439-15.0051,9.5812,0,15.5472,4.1582,17.7166,15.0051h-37.0605ZM757.6122,123.9106v-10.3782h-24.2057v86.9757h27.8884v-59.8385h31.9502v-27.1372h-25.2546l-10.3782,10.3782ZM970.0498,123.7546h-.5426c-5.0619-8.6776-14.4626-13.0164-25.49-13.0164-23.5017,0-40.6757,19.1624-40.6757,45.7375s17.174,45.7375,41.0373,45.7375c11.2085,0,20.6091-4.3386,25.4905-13.0162h.7231l1.0842,10.6664h25.8521v-126.5474h-27.4789v50.4385ZM951.068,177.2661c-12.1127,0-19.7056-8.8586-19.7056-20.7903s7.5929-20.6091,19.7056-20.6091c12.2932,0,19.8855,8.6775,19.8855,20.6091s-7.5923,20.7903-19.8855,20.7903ZM867.5976,124.8516h-.7231c-4.8813-8.6775-14.282-13.0164-25.6716-13.0164-23.6822,0-41.0373,19.1624-41.0373,45.7377s17.3551,45.7377,41.0373,45.7377c11.3895,0,20.7902-4.3389,25.6716-13.0164h.7231l1.0842,10.6664h25.4905v-86.7754h-25.4905l-1.0842,10.6664ZM848.0731,178.363c-12.1127,0-19.7055-8.8586-19.7055-20.7902s7.5928-20.6093,19.7055-20.6093c12.2932,0,19.8855,8.6776,19.8855,20.6093s-7.5923,20.7902-19.8855,20.7902Z" style="fill:#0e2b56; strokeWidth:0px;"/></g></g></svg>